# xmcd
# Track frame offsets:
# 150
# 17592
# 30277
# 48001
# 63041
# 82066
# 98456
# 113124
# 126867
# 141474
# 157931
#
# Disc length: 2363 seconds
# Revision: 0
# Processed by: cddbd v1.5.2PL0 Copyright (c) Steve Scherf et al.
# Submitted via: VisiTrax 2.10.3.257 - For more info visit www.synapsa.com
#
DISCID=7b09390b
DTITLE=Little Anthony and The Imperials - On A New Street
DYEAR=1973
DGENRE=Soul
TTITLE0=I'm Falling In Love With You
TTITLE1=Lazy Susan
TTITLE2=The Loneliest House On The Block
TTITLE3=I Don't Have Time To Worry
TTITLE4=La La La At The End
TTITLE5=That's What Love Is All About
TTITLE6=What Good Am I Without You
TTITLE7=Sooner Or Later
TTITLE8=Loving You Won't Hurt As Much Tomorrow
TTITLE9=Heartaches Never Entered My Mind
TTITLE10=Easier Said Than Done
EXTD=
EXTT0=
EXTT1=
EXTT2=
EXTT3=
EXTT4=
EXTT5=
EXTT6=
EXTT7=
EXTT8=
EXTT9=
EXTT10=
PLAYORDER=
